<svg width="20" height="20" viewBox="0 0 20 20" fill="none" xmlns="http://www.w3.org/2000/svg">
<mask id="mask0_2933_5469" style="mask-type:luminance" maskUnits="userSpaceOnUse" x="0" y="0" width="20" height="20">
<path d="M20 0H0V20H20V0Z" fill="white"/>
</mask>
<g mask="url(#mask0_2933_5469)">
<path d="M18.5195 0H1.47656C0.660156 0 0 0.644532 0 1.44141V18.5547C0 19.3516 0.660156 20 1.47656 20H18.5195C19.3359 20 20 19.3516 20 18.5586V1.44141C20 0.644532 19.3359 0 18.5195 0ZM5.93359 17.043H2.96484V7.49609H5.93359V17.043ZM4.44922 6.19532C3.49609 6.19532 2.72657 5.42578 2.72657 4.47656C2.72657 3.52734 3.49609 2.75781 4.44922 2.75781C5.39844 2.75781 6.16797 3.52734 6.16797 4.47656C6.16797 5.42188 5.39844 6.19532 4.44922 6.19532ZM17.043 17.043H14.0781V12.4023C14.0781 11.2969 14.0586 9.87108 12.5352 9.87108C10.9922 9.87108 10.7578 11.0782 10.7578 12.3242V17.043H7.79687V7.49609H10.6406V8.80075H10.6797C11.0743 8.05078 12.043 7.25782 13.4844 7.25782C16.4882 7.25782 17.043 9.23442 17.043 11.8047V17.043Z" fill="white"/>
</g>
</svg>
