<svg width="20" height="20" viewBox="0 0 20 20" fill="none" xmlns="http://www.w3.org/2000/svg">
<path d="M19.8008 6C19.8008 6 19.6055 4.62109 19.0039 4.01563C18.2422 3.21875 17.3907 3.21484 17 3.16797C14.2032 2.96484 10.0039 2.96484 10.0039 2.96484H9.99608C9.99608 2.96484 5.79688 2.96484 3 3.16797C2.60937 3.21484 1.75782 3.21875 0.996092 4.01563C0.394532 4.62109 0.203125 6 0.203125 6C0.203125 6 0 7.62109 0 9.23829V10.7539C0 12.3711 0.199218 13.9922 0.199218 13.9922C0.199218 13.9922 0.394531 15.3711 0.992183 15.9765C1.75391 16.7735 2.75391 16.7461 3.19922 16.832C4.80078 16.9844 10 17.0312 10 17.0312C10 17.0312 14.2032 17.0235 17 16.8242C17.3907 16.7774 18.2422 16.7735 19.0039 15.9765C19.6055 15.3711 19.8008 13.9922 19.8008 13.9922C19.8008 13.9922 20 12.375 20 10.7539V9.23829C20 7.62109 19.8008 6 19.8008 6ZM7.93359 12.5937V6.97266L13.3359 9.79296L7.93359 12.5937Z" fill="white"/>
</svg>
