<svg width="60" height="30" viewBox="0 0 60 30" fill="none" xmlns="http://www.w3.org/2000/svg">
<mask id="mask0_1318_11044" style="mask-type:luminance" maskUnits="userSpaceOnUse" x="0" y="2" width="60" height="27">
<path d="M60 2.25H0V28.4318H60V2.25Z" fill="white"/>
</mask>
<g mask="url(#mask0_1318_11044)">
<path fill-rule="evenodd" clip-rule="evenodd" d="M37.0553 22.8717C33.5843 25.4301 28.5532 26.7951 24.2216 26.7951C18.1479 26.7951 12.68 24.5487 8.54342 20.8125C8.21844 20.5186 8.50959 20.1183 8.89959 20.347C13.3639 22.9445 18.8837 24.5071 24.5856 24.5071C28.431 24.5071 32.6612 23.7114 36.5509 22.0605C37.1385 21.8109 37.6299 22.4453 37.0553 22.8717Z" fill="#FF9900"/>
<path fill-rule="evenodd" clip-rule="evenodd" d="M38.4984 21.2219C38.0564 20.6551 35.5656 20.9541 34.4476 21.0867C34.107 21.1283 34.055 20.8319 34.3618 20.6187C36.3456 19.2225 39.6008 19.6255 39.9804 20.0935C40.36 20.5641 39.8816 23.8271 38.0174 25.3846C37.7314 25.6237 37.4584 25.4963 37.5858 25.1791C38.0044 24.1339 38.943 21.7913 38.4984 21.2219Z" fill="#FF9900"/>
<path fill-rule="evenodd" clip-rule="evenodd" d="M34.5255 10.7609V9.40375C34.5255 9.19832 34.6815 9.06055 34.8687 9.06055H40.945C41.14 9.06055 41.296 9.20095 41.296 9.40375V10.5659C41.2934 10.7609 41.1296 11.0158 40.8383 11.4188L37.6898 15.9142C38.8598 15.8856 40.0948 16.0598 41.1556 16.6578C41.3948 16.793 41.4598 16.9906 41.478 17.1856V18.6338C41.478 18.8315 41.2596 19.0628 41.0308 18.9432C39.1613 17.963 36.6783 17.8565 34.6113 18.9536C34.4007 19.068 34.1797 18.8393 34.1797 18.6416V17.2662C34.1797 17.0452 34.1823 16.6682 34.4033 16.3328L38.0511 11.1016H34.8765C34.6815 11.1016 34.5255 10.9637 34.5255 10.7609Z" fill="black"/>
<path fill-rule="evenodd" clip-rule="evenodd" d="M12.3605 19.2296H10.5119C10.3351 19.2166 10.1947 19.084 10.1816 18.915V9.42747C10.1816 9.23772 10.3403 9.08689 10.5379 9.08689H12.2617C12.4411 9.09469 12.5841 9.23247 12.5971 9.40407V10.6443H12.6309C13.0807 9.44569 13.9257 8.88672 15.0645 8.88672C16.2215 8.88672 16.9443 9.44569 17.4644 10.6443C17.9115 9.44569 18.9281 8.88672 20.0176 8.88672C20.7924 8.88672 21.64 9.20652 22.1574 9.92412C22.7424 10.7223 22.6228 11.8819 22.6228 12.8985L22.6202 18.8864C22.6202 19.0762 22.4616 19.2296 22.264 19.2296H20.4179C20.2334 19.2166 20.0852 19.0684 20.0852 18.8864V13.8579C20.0852 13.4575 20.1215 12.4591 20.0332 12.0795C19.8953 11.4425 19.4819 11.2631 18.9464 11.2631C18.4991 11.2631 18.0311 11.5621 17.8413 12.0405C17.6516 12.5189 17.6697 13.3197 17.6697 13.8579V18.8864C17.6697 19.0762 17.5112 19.2296 17.3135 19.2296H15.4675C15.2803 19.2166 15.1347 19.0684 15.1347 18.8864L15.1321 13.8579C15.1321 12.7997 15.3063 11.2423 13.9933 11.2423C12.6647 11.2423 12.7167 12.7607 12.7167 13.8579V18.8864C12.7167 19.0762 12.5581 19.2296 12.3605 19.2296Z" fill="black"/>
<path fill-rule="evenodd" clip-rule="evenodd" d="M46.5277 8.88672C49.2708 8.88672 50.7554 11.2423 50.7554 14.2375C50.7554 17.1314 49.1148 19.4272 46.5277 19.4272C43.8341 19.4272 42.3677 17.0715 42.3677 14.1361C42.3677 11.1825 43.8523 8.88672 46.5277 8.88672ZM46.5433 10.8237C45.1809 10.8237 45.0951 12.6801 45.0951 13.8372C45.0951 14.9967 45.0769 17.472 46.5277 17.472C47.9604 17.472 48.0279 15.4752 48.0279 14.2584C48.0279 13.4575 47.9941 12.5007 47.7523 11.7415C47.5443 11.0811 47.1309 10.8237 46.5433 10.8237Z" fill="black"/>
<path fill-rule="evenodd" clip-rule="evenodd" d="M54.3119 19.2296H52.4711C52.2865 19.2166 52.1383 19.0684 52.1383 18.8864L52.1357 9.39627C52.1513 9.22212 52.3047 9.08689 52.4919 9.08689H54.2054C54.3665 9.09469 54.4991 9.20389 54.5355 9.35209V10.8029H54.5693C55.0868 9.50547 55.8122 8.88672 57.0887 8.88672C57.9182 8.88672 58.7268 9.18567 59.2468 10.0047C59.7304 10.7639 59.7304 12.0405 59.7304 12.9583V18.9306C59.7096 19.097 59.5562 19.2296 59.3742 19.2296H57.5204C57.3514 19.2166 57.211 19.0918 57.1928 18.9306V13.7773C57.1928 12.7399 57.3124 11.2215 56.0357 11.2215C55.586 11.2215 55.1726 11.5231 54.9671 11.9807C54.7071 12.5605 54.6734 13.1377 54.6734 13.7773V18.8864C54.6707 19.0762 54.5096 19.2296 54.3119 19.2296Z" fill="black"/>
<path fill-rule="evenodd" clip-rule="evenodd" d="M29.6819 14.697C29.6819 15.4172 29.7001 16.0178 29.3361 16.6574C29.0423 17.1774 28.5743 17.4972 28.0569 17.4972C27.3471 17.4972 26.9311 16.9564 26.9311 16.1582C26.9311 14.5826 28.3429 14.2965 29.6819 14.2965V14.697ZM31.5462 19.2028C31.4239 19.312 31.2471 19.3198 31.1094 19.247C30.4957 18.7374 30.384 18.5008 30.0486 18.0146C29.0345 19.0494 28.3143 19.3588 27.0013 19.3588C25.4439 19.3588 24.2349 18.3994 24.2349 16.478C24.2349 14.9778 25.0461 13.956 26.2057 13.4568C27.2093 13.0148 28.6107 12.9368 29.6819 12.8145V12.5754C29.6819 12.1359 29.7157 11.616 29.4557 11.2363C29.2321 10.8957 28.8005 10.7553 28.4183 10.7553C27.7137 10.7553 27.0871 11.1168 26.9337 11.8656C26.9025 12.0319 26.7803 12.1957 26.6113 12.2035L24.8199 12.0111C24.669 11.9773 24.5001 11.8551 24.5442 11.6238C24.9551 9.45012 26.9207 8.79492 28.6783 8.79492C29.5779 8.79492 30.7531 9.0341 31.4629 9.71532C32.3625 10.5552 32.2767 11.6757 32.2767 12.8952V15.776C32.2767 16.6418 32.6355 17.0214 32.9736 17.4894C33.0906 17.6558 33.1166 17.856 32.9658 17.9808C32.5887 18.2954 31.9179 18.8804 31.5487 19.208L31.5462 19.2028Z" fill="black"/>
<path fill-rule="evenodd" clip-rule="evenodd" d="M5.44705 14.697C5.44705 15.4172 5.46525 16.0178 5.10125 16.6574C4.80745 17.1774 4.34204 17.4972 3.82204 17.4972C3.11223 17.4972 2.69883 16.9564 2.69883 16.1582C2.69883 14.5826 4.11064 14.2965 5.44705 14.2965V14.697ZM7.31127 19.2028C7.18907 19.312 7.01227 19.3198 6.87446 19.247C6.26086 18.7374 6.15166 18.5008 5.81365 18.0146C4.79965 19.0494 4.08204 19.3588 2.76643 19.3588C1.21161 19.3588 0 18.3994 0 16.478C0 14.9778 0.81381 13.956 1.97082 13.4568C2.97442 13.0147 4.37584 12.9368 5.44705 12.8145V12.5754C5.44705 12.1359 5.48086 11.616 5.22345 11.2363C4.99725 10.8957 4.56565 10.7553 4.18604 10.7553C3.48143 10.7553 2.85223 11.1168 2.69883 11.8656C2.66762 12.0319 2.54542 12.1957 2.37902 12.2035L0.585006 12.0111C0.434204 11.9773 0.267803 11.8551 0.309403 11.6238C0.722807 9.45012 2.68583 8.79492 4.44344 8.79492C5.34305 8.79492 6.51827 9.0341 7.22807 9.71532C8.12768 10.5552 8.04187 11.6757 8.04187 12.8952V15.776C8.04187 16.6418 8.40067 17.0214 8.7387 17.4894C8.85825 17.6558 8.88427 17.856 8.73345 17.9808C8.3565 18.2954 7.6857 18.8804 7.31647 19.208L7.31127 19.2028Z" fill="black"/>
</g>
</svg>
