<svg width="60" height="30" viewBox="0 0 60 30" fill="none" xmlns="http://www.w3.org/2000/svg">
<g clip-path="url(#clip0_1318_11058)">
<mask id="mask0_1318_11058" style="mask-type:luminance" maskUnits="userSpaceOnUse" x="0" y="0" width="60" height="30">
<path d="M60 0H0V30H60V0Z" fill="white"/>
</mask>
<g mask="url(#mask0_1318_11058)">
<path d="M25.6123 15.8702C25.6123 18.6967 23.4011 20.7795 20.6875 20.7795C17.9738 20.7795 15.7627 18.6967 15.7627 15.8702C15.7627 13.0238 17.9738 10.9609 20.6875 10.9609C23.4011 10.9609 25.6123 13.0238 25.6123 15.8702ZM23.4564 15.8702C23.4564 14.104 22.1749 12.8954 20.6875 12.8954C19.2001 12.8954 17.9185 14.104 17.9185 15.8702C17.9185 17.6188 19.2001 18.845 20.6875 18.845C22.1749 18.845 23.4564 17.6166 23.4564 15.8702Z" fill="#EA4335"/>
<path d="M36.2373 15.8702C36.2373 18.6967 34.0261 20.7795 31.3125 20.7795C28.5988 20.7795 26.3877 18.6967 26.3877 15.8702C26.3877 13.026 28.5988 10.9609 31.3125 10.9609C34.0261 10.9609 36.2373 13.0238 36.2373 15.8702ZM34.0814 15.8702C34.0814 14.104 32.7999 12.8954 31.3125 12.8954C29.8251 12.8954 28.5435 14.104 28.5435 15.8702C28.5435 17.6188 29.8251 18.845 31.3125 18.845C32.7999 18.845 34.0814 17.6166 34.0814 15.8702Z" fill="#FBBC05"/>
<path d="M46.4181 11.2575V20.0712C46.4181 23.6968 44.28 25.1775 41.7523 25.1775C39.3729 25.1775 37.9409 23.5861 37.4008 22.2846L39.2778 21.5033C39.612 22.3023 40.431 23.2452 41.7501 23.2452C43.3681 23.2452 44.3708 22.247 44.3708 20.3678V19.6618H44.2955C43.813 20.2571 42.8834 20.7773 41.7102 20.7773C39.2556 20.7773 37.0068 18.6391 37.0068 15.8879C37.0068 13.1167 39.2556 10.9609 41.7102 10.9609C42.8811 10.9609 43.8108 11.4811 44.2955 12.0588H44.3708V11.2597H46.4181V11.2575ZM44.5235 15.8879C44.5235 14.1592 43.3703 12.8954 41.9028 12.8954C40.4154 12.8954 39.1693 14.1592 39.1693 15.8879C39.1693 17.5989 40.4154 18.845 41.9028 18.845C43.3703 18.845 44.5235 17.5989 44.5235 15.8879Z" fill="#4285F4"/>
<path d="M49.7941 6.08984V20.4769H47.6914V6.08984H49.7941Z" fill="#34A853"/>
<path d="M57.9879 17.4863L59.6612 18.6019C59.1212 19.4009 57.8197 20.7776 55.5709 20.7776C52.782 20.7776 50.6992 18.6217 50.6992 15.8683C50.6992 12.9489 52.7997 10.959 55.3296 10.959C57.8772 10.959 59.1234 12.9865 59.5306 14.0821L59.7542 14.6399L53.1915 17.3579C53.694 18.3429 54.4752 18.8453 55.5709 18.8453C56.6687 18.8453 57.4302 18.3052 57.9879 17.4863ZM52.8374 15.72L57.2243 13.8984C56.983 13.2853 56.257 12.8581 55.4027 12.8581C54.307 12.8581 52.782 13.8253 52.8374 15.72Z" fill="#EA4335"/>
<path d="M7.80366 14.5928V12.5101H14.8223C14.8909 12.873 14.9263 13.3025 14.9263 13.7672C14.9263 15.3299 14.4991 17.2622 13.1224 18.6389C11.7833 20.0333 10.0723 20.777 7.80583 20.777C3.60483 20.777 0.0722656 17.3552 0.0722656 13.1541C0.0722656 8.95315 3.60483 5.53125 7.80583 5.53125C10.1299 5.53125 11.7855 6.44317 13.0294 7.63172L11.5597 9.10142C10.6678 8.2648 9.45928 7.61402 7.80366 7.61402C4.73588 7.61402 2.33656 10.0864 2.33656 13.1541C2.33656 16.2219 4.73588 18.6943 7.80366 18.6943C9.79348 18.6943 10.9267 17.8952 11.6527 17.1692C12.2415 16.5805 12.6288 15.7394 12.7816 14.5907L7.80366 14.5928Z" fill="#4285F4"/>
</g>
</g>
<defs>
<clipPath id="clip0_1318_11058">
<rect width="60" height="30" fill="white"/>
</clipPath>
</defs>
</svg>
