<svg width="60" height="30" viewBox="0 0 60 30" fill="none" xmlns="http://www.w3.org/2000/svg">
<mask id="mask0_1318_11080" style="mask-type:luminance" maskUnits="userSpaceOnUse" x="0" y="5" width="60" height="20">
<path d="M60 5.25H0V24.0735H60V5.25Z" fill="white"/>
</mask>
<g mask="url(#mask0_1318_11080)">
<path d="M51.3849 14.2444V18.9707H52.8956V15.8198H58.4204V18.9707H59.9311V14.2444H51.3849ZM52.723 12.7121H58.5499C59.3699 12.561 59.9527 11.8273 60.1253 11.1367H51.1475C51.3202 11.8273 51.9245 12.5394 52.723 12.7121ZM46.7882 18.9707C47.5435 18.6469 47.9535 18.0858 48.1262 17.4384H41.3281V11.1582H39.7958V18.9707H46.7882ZM28.4657 12.6906H33.861C34.6811 12.4531 35.3501 11.8273 35.5228 11.1582H26.9766V15.7767H33.9689V17.3952H28.4873C27.6241 17.6326 26.8903 18.2153 26.5235 18.9707H35.4796V14.2444H28.4873L28.4657 12.6906ZM15.1718 12.7121H20.9987C21.8187 12.561 22.423 11.8273 22.5741 11.1367H13.5747C13.7474 11.8273 14.3516 12.5394 15.1718 12.7121ZM15.1718 15.7982H20.9987C21.8187 15.6471 22.423 14.9134 22.5741 14.2228H13.5747C13.7474 14.9134 14.3516 15.6255 15.1718 15.7982ZM15.1718 18.9707H20.9987C21.8187 18.8196 22.423 18.0858 22.5741 17.3952H13.5747C13.7474 18.0858 14.3516 18.8196 15.1718 18.9707Z" fill="#5E5E5E"/>
<path d="M0 11.1582C0.172649 11.8488 0.776925 12.5394 1.57543 12.7121H4.03568L4.16517 12.7553V18.9491H5.69743V12.7553L5.82691 12.7121H8.2872C9.10725 12.4963 9.68993 11.8488 9.86257 11.1582V11.1367L0 11.1582Z" fill="#5E5E5E"/>
</g>
</svg>
