<svg width="130" height="50" viewBox="0 0 130 50" fill="none" xmlns="http://www.w3.org/2000/svg">
<path d="M58.7427 49.8987V45.1914H61.5672V45.8641H59.4154V47.0412H61.0493V47.7139H59.4154V49.214H61.702V49.9001H58.7427V49.8987Z" fill="white"/>
<path d="M67.6955 48.3953C67.5673 48.6929 67.3938 48.9532 67.1749 49.1747C66.9546 49.3963 66.6983 49.5725 66.4047 49.7019C66.111 49.8314 65.7987 49.8968 65.4663 49.8968H63.8191V45.1895H65.4529C65.7853 45.1895 66.099 45.2495 66.394 45.3683C66.6903 45.4871 66.9493 45.6499 67.1709 45.8555C67.3924 46.061 67.5673 46.2999 67.6955 46.5722C67.8236 46.8431 67.8877 47.134 67.8877 47.4437C67.8877 47.78 67.8236 48.0977 67.6955 48.3953ZM67.0748 46.8458C66.98 46.6536 66.8532 46.4841 66.6943 46.3386C66.5355 46.1931 66.3486 46.077 66.1364 45.9929C65.9228 45.9075 65.6999 45.8648 65.4676 45.8648H64.4918V49.2268H65.4676C65.7052 49.2268 65.9295 49.1801 66.1404 49.0853C66.3513 48.9905 66.5368 48.8637 66.6957 48.7049C66.8545 48.5461 66.9813 48.3593 67.0761 48.147C67.1695 47.9335 67.2176 47.7066 67.2176 47.465C67.2176 47.2448 67.1709 47.0393 67.0761 46.8471L67.0748 46.8458Z" fill="white"/>
<path d="M73.8889 48.7763C73.7835 49.0179 73.638 49.2301 73.4524 49.4116C73.2669 49.5931 73.0507 49.7359 72.8037 49.8413C72.5568 49.9468 72.2925 49.9988 72.0095 49.9988C71.7265 49.9988 71.4622 49.9468 71.2153 49.8413C70.9683 49.7359 70.7521 49.5931 70.5665 49.4116C70.381 49.2301 70.2342 49.0179 70.1287 48.7763C70.0232 48.5347 69.9712 48.2758 69.9712 48.0022V45.1914H70.6439V47.9955C70.6439 48.1797 70.68 48.3519 70.7521 48.5134C70.8241 48.6748 70.9216 48.8163 71.0444 48.9378C71.1672 49.0579 71.3127 49.154 71.4782 49.2234C71.6437 49.2928 71.8213 49.3275 72.0095 49.3275C72.1977 49.3275 72.3752 49.2928 72.5408 49.2234C72.7063 49.154 72.8518 49.0579 72.9746 48.9378C73.0974 48.8163 73.1948 48.6748 73.2669 48.5134C73.339 48.3519 73.375 48.1797 73.375 47.9955V45.1914H74.0478V48.0022C74.0478 48.2758 73.9944 48.5334 73.8889 48.7763Z" fill="white"/>
<path d="M79.5635 45.9547C79.2699 45.8266 78.9548 45.7638 78.6185 45.7638C78.3715 45.7638 78.1393 45.8092 77.919 45.8986C77.7001 45.9881 77.5079 46.1095 77.3437 46.2617C77.1808 46.4138 77.0514 46.5927 76.9566 46.7969C76.8618 47.0011 76.8151 47.2173 76.8151 47.4455C76.8151 47.7058 76.8631 47.95 76.9593 48.1782C77.0554 48.4065 77.1862 48.6067 77.349 48.7762C77.5132 48.947 77.7041 49.0805 77.9243 49.1792C78.1446 49.278 78.3795 49.3274 78.6305 49.3274C78.9668 49.3274 79.2779 49.2593 79.5649 49.1218C79.8518 48.9857 80.0894 48.8002 80.2777 48.5666V49.4742C80.0401 49.6397 79.7784 49.7691 79.4941 49.8612C79.2098 49.9533 78.9094 49.9987 78.5958 49.9987C78.2594 49.9987 77.9417 49.932 77.644 49.7972C77.3464 49.6624 77.0861 49.4795 76.8645 49.2486C76.6429 49.0177 76.4667 48.7468 76.3372 48.4345C76.2064 48.1222 76.1423 47.7925 76.1423 47.4428C76.1423 47.1198 76.2077 46.8169 76.3372 46.5313C76.4667 46.247 76.6429 45.9974 76.8645 45.7852C77.0861 45.5717 77.3464 45.4035 77.644 45.278C77.9417 45.1526 78.2594 45.0898 78.5958 45.0898C78.9135 45.0898 79.2151 45.1326 79.5008 45.218C79.7851 45.3034 80.0494 45.4222 80.291 45.5743V46.4552C80.0974 46.2497 79.8545 46.0815 79.5608 45.9547H79.5635Z" fill="white"/>
<path d="M85.8064 49.9054L85.3486 48.7483H83.3516L82.8938 49.9054H82.1543L84.1178 45.1914H84.5824L86.5459 49.9054H85.8064ZM84.3541 46.3752L83.648 48.0836H85.0536L84.3541 46.3752Z" fill="white"/>
<path d="M90.4385 45.8641V49.8987H89.7657V45.8641H88.3V45.1914H91.9054V45.8641H90.4398H90.4385Z" fill="white"/>
<path d="M93.9275 49.8987V45.1914H94.6003V49.8987H93.9275Z" fill="white"/>
<path d="M101.473 48.4364C101.344 48.7487 101.168 49.0197 100.946 49.2506C100.725 49.4815 100.464 49.6643 100.167 49.7991C99.869 49.9339 99.5513 50.0006 99.2149 50.0006C98.8785 50.0006 98.5608 49.9339 98.2632 49.7991C97.9655 49.6643 97.7052 49.4815 97.4836 49.2506C97.262 49.0197 97.0859 48.7487 96.9564 48.4364C96.8256 48.1241 96.7615 47.7945 96.7615 47.4448C96.7615 47.1218 96.8269 46.8188 96.9564 46.5332C97.0859 46.2489 97.262 45.9994 97.4836 45.7872C97.7052 45.5736 97.9655 45.4054 98.2632 45.28C98.5608 45.1545 98.8785 45.0918 99.2149 45.0918C99.5513 45.0918 99.869 45.1545 100.167 45.28C100.464 45.4054 100.725 45.5749 100.946 45.7872C101.168 46.0007 101.344 46.2489 101.473 46.5332C101.604 46.8175 101.668 47.1218 101.668 47.4448C101.668 47.7945 101.603 48.1255 101.473 48.4364ZM100.854 46.8068C100.759 46.6013 100.633 46.4198 100.471 46.265C100.309 46.1101 100.123 45.9887 99.909 45.8979C99.6955 45.8085 99.4712 45.7631 99.2323 45.7631C98.9933 45.7631 98.7531 45.8085 98.5328 45.8979C98.3139 45.9874 98.1217 46.1088 97.9575 46.261C97.7933 46.4131 97.6652 46.5919 97.5704 46.7961C97.4756 47.0003 97.4289 47.2166 97.4289 47.4448C97.4289 47.705 97.477 47.9493 97.5731 48.1775C97.6692 48.4057 97.8 48.6059 97.9628 48.7754C98.127 48.9463 98.3179 49.0797 98.5381 49.1785C98.7584 49.2773 98.9933 49.3266 99.2443 49.3266C99.4819 49.3266 99.7061 49.2773 99.917 49.1785C100.128 49.0797 100.312 48.9449 100.472 48.7754C100.631 48.6046 100.758 48.4084 100.853 48.1842C100.948 47.96 100.994 47.7197 100.994 47.4648C100.994 47.2312 100.948 47.0124 100.853 46.8055L100.854 46.8068Z" fill="white"/>
<path d="M107.398 49.8987L104.472 46.2471V49.8987H103.819V45.1914H104.492L107.41 48.8297V45.1914H108.069V49.8987H107.396H107.398Z" fill="white"/>
<path d="M13.5168 21.1279C15.8167 21.1279 17.7362 21.9007 19.2232 23.4275L23.8431 19.3729C22.6377 18.0556 21.1507 16.9865 19.4194 16.1937C17.6174 15.3689 15.6312 14.9512 13.5155 14.9512C11.05 14.9512 8.76211 15.5171 6.71714 16.6315C4.67217 17.7473 3.02231 19.2661 1.81562 21.1466C0.610265 23.0231 0.000244141 25.1252 0.000244141 27.3968C0.000244141 29.6684 0.6116 31.7651 1.81562 33.6283C3.02231 35.4968 4.67217 37.0103 6.71847 38.126C8.76344 39.2418 11.05 39.8064 13.5168 39.8064C15.6352 39.8064 17.6214 39.394 19.4221 38.5812C21.1521 37.8004 22.6391 36.7247 23.8457 35.386L19.2259 31.3313C17.7389 32.8795 15.8194 33.6643 13.5181 33.6643C11.5039 33.6643 9.75656 33.0477 8.32295 31.8332C6.87865 30.6093 6.14583 29.1172 6.14583 27.3968C6.14583 25.6764 6.87865 24.1536 8.32428 22.9417C9.7579 21.7392 11.5052 21.1293 13.5181 21.1293L13.5168 21.1279Z" fill="white"/>
<path d="M34.0774 8.78906H27.9331V39.8063H34.0774V8.78906Z" fill="white"/>
<path d="M48.8766 14.9826H48.8712H48.8659C45.8305 15.2148 43.2769 16.4761 41.2747 18.7343C39.2671 20.9965 38.1912 23.8513 38.0737 27.22V27.5323C38.1899 31.0171 39.3445 33.9666 41.5029 36.2996C42.5801 37.4634 43.7895 38.3483 45.0963 38.9302C46.4018 39.5108 47.8447 39.8057 49.3838 39.8057C49.7322 39.8057 50.0726 39.7937 50.3943 39.771C52.1189 39.5508 53.6793 39.0103 55.0328 38.1668C56.3877 37.322 57.5743 36.1461 58.5608 34.6727L58.9626 34.0721V39.8057H65.1068V14.9492H49.3851C49.2316 14.9492 49.0608 14.9612 48.8779 14.9826H48.8766ZM51.0457 21.1273H58.9612V27.3948C58.9612 27.5924 58.9479 27.7819 58.9239 27.9594C58.7036 29.5983 57.8974 30.9757 56.5292 32.0501C55.1676 33.1205 53.5058 33.6623 51.5903 33.6623C49.576 33.6623 47.8287 33.0457 46.3951 31.8312C44.9508 30.6073 44.218 29.1152 44.218 27.3948C44.218 25.6745 44.8774 24.3171 46.1762 23.14C47.463 21.9735 49.0995 21.2968 51.0377 21.1273H51.047H51.0457Z" fill="white"/>
<path d="M75.2463 21.3456V21.1267H75.4652H87.3439V14.9473H69.1021V35.1686H75.2463V21.3456Z" fill="white"/>
<path d="M94.4265 0C93.2585 0 92.2574 0.409736 91.4511 1.21586C90.6436 2.02333 90.2351 3.01231 90.2351 4.1561C90.2351 5.2999 90.6449 6.29555 91.4525 7.11502C92.2587 7.93316 93.2598 8.34824 94.4278 8.34824C95.5958 8.34824 96.5609 7.93316 97.3671 7.11502C98.1747 6.29555 98.5845 5.2999 98.5845 4.1561C98.5845 3.01231 98.1747 2.02333 97.3685 1.21586C96.5609 0.408401 95.5718 0 94.4278 0H94.4265Z" fill="white"/>
<path d="M97.4819 14.9473H91.3376V39.8038H97.4819V14.9473Z" fill="white"/>
<path d="M116.457 33.1656L121.784 39.8054H129.723L120.437 28.2754L116.457 33.1656Z" fill="white"/>
<path d="M129.724 14.9473H121.784L115.872 22.2665L115.701 22.4787L115.53 22.2665L109.618 14.9473H101.713L108.432 23.2808L115.701 32.2764V32.275L115.702 32.2764L120.503 26.3759L121.281 25.4203L129.724 14.9473Z" fill="white"/>
<path d="M109.617 39.8063L114.94 33.1691L110.982 28.2949L101.713 39.8063H109.617Z" fill="white"/>
</svg>
