<svg width="129" height="50" viewBox="0 0 129 50" fill="none" xmlns="http://www.w3.org/2000/svg">
<path d="M58.4141 49.6205V44.9395H61.2228V45.6084H59.0831V46.779H60.7078V47.4479H59.0831V48.9396H61.3569V49.6218H58.4141V49.6205Z" fill="#513392"/>
<path d="M67.3166 48.1254C67.1892 48.4214 67.0167 48.6802 66.799 48.9005C66.5799 49.1208 66.3251 49.296 66.0331 49.4248C65.741 49.5535 65.4304 49.6185 65.0999 49.6185H63.4619V44.9375H65.0866C65.4172 44.9375 65.7291 44.9972 66.0224 45.1153C66.3171 45.2335 66.5746 45.3954 66.795 45.5998C67.0153 45.8042 67.1892 46.0417 67.3166 46.3125C67.4441 46.5819 67.5078 46.8712 67.5078 47.1791C67.5078 47.5136 67.4441 47.8295 67.3166 48.1254ZM66.6994 46.5846C66.6052 46.3934 66.4791 46.2249 66.3211 46.0802C66.1631 45.9356 65.9773 45.8201 65.7663 45.7365C65.5539 45.6515 65.3322 45.6091 65.1012 45.6091H64.1309V48.9523H65.1012C65.3375 48.9523 65.5605 48.9058 65.7702 48.8116C65.98 48.7174 66.1645 48.5913 66.3224 48.4334C66.4804 48.2754 66.6065 48.0896 66.7007 47.8786C66.7937 47.6662 66.8414 47.4406 66.8414 47.2004C66.8414 46.9814 66.795 46.777 66.7007 46.5859L66.6994 46.5846Z" fill="#513392"/>
<path d="M73.476 48.5043C73.3711 48.7445 73.2264 48.9556 73.0419 49.1361C72.8574 49.3166 72.6424 49.4586 72.3968 49.5634C72.1512 49.6683 71.8884 49.72 71.607 49.72C71.3256 49.72 71.0628 49.6683 70.8172 49.5634C70.5716 49.4586 70.3566 49.3166 70.1721 49.1361C69.9876 48.9556 69.8416 48.7445 69.7367 48.5043C69.6318 48.2641 69.5801 48.0066 69.5801 47.7345V44.9395H70.2491V47.7279C70.2491 47.9111 70.2849 48.0823 70.3566 48.2429C70.4283 48.4035 70.5252 48.5441 70.6473 48.6649C70.7694 48.7844 70.9141 48.8799 71.0787 48.9489C71.2433 49.0179 71.4198 49.0525 71.607 49.0525C71.7942 49.0525 71.9707 49.0179 72.1353 48.9489C72.2999 48.8799 72.4446 48.7844 72.5667 48.6649C72.6888 48.5441 72.7857 48.4035 72.8574 48.2429C72.9291 48.0823 72.9649 47.9111 72.9649 47.7279V44.9395H73.6339V47.7345C73.6339 48.0066 73.5808 48.2628 73.476 48.5043Z" fill="#513392"/>
<path d="M79.1199 45.6979C78.8278 45.5705 78.5146 45.5081 78.1801 45.5081C77.9345 45.5081 77.7036 45.5533 77.4845 45.6422C77.2668 45.7311 77.0757 45.8519 76.9124 46.0032C76.7505 46.1545 76.6217 46.3323 76.5275 46.5354C76.4332 46.7384 76.3868 46.9535 76.3868 47.1804C76.3868 47.4392 76.4346 47.6821 76.5301 47.909C76.6257 48.136 76.7558 48.3351 76.9177 48.5036C77.081 48.6735 77.2708 48.8062 77.4898 48.9044C77.7088 49.0027 77.9425 49.0518 78.192 49.0518C78.5265 49.0518 78.8358 48.9841 79.1212 48.8474C79.4066 48.712 79.6429 48.5275 79.83 48.2953V49.1978C79.5937 49.3623 79.3336 49.4911 79.0508 49.5826C78.7681 49.6742 78.4694 49.7193 78.1575 49.7193C77.823 49.7193 77.5071 49.653 77.2111 49.5189C76.9151 49.3849 76.6562 49.2031 76.4359 48.9735C76.2155 48.7439 76.0403 48.4744 75.9116 48.1639C75.7815 47.8533 75.7178 47.5255 75.7178 47.1777C75.7178 46.8566 75.7828 46.5553 75.9116 46.2713C76.0403 45.9886 76.2155 45.7404 76.4359 45.5294C76.6562 45.317 76.9151 45.1498 77.2111 45.025C77.5071 44.9003 77.823 44.8379 78.1575 44.8379C78.4734 44.8379 78.7734 44.8804 79.0575 44.9653C79.3402 45.0502 79.603 45.1684 79.8433 45.3197V46.1956C79.6508 45.9912 79.4092 45.824 79.1172 45.6979H79.1199Z" fill="#513392"/>
<path d="M85.327 49.6271L84.8717 48.4764H82.886L82.4307 49.6271H81.6953L83.6479 44.9395H84.1098L86.0624 49.6271H85.327ZM83.8828 46.1167L83.1807 47.8155H84.5784L83.8828 46.1167Z" fill="#513392"/>
<path d="M89.9331 45.6084V49.6205H89.2641V45.6084H87.8066V44.9395H91.3919V45.6084H89.9344H89.9331Z" fill="#513392"/>
<path d="M93.4033 49.6205V44.9395H94.0723V49.6205H93.4033Z" fill="#513392"/>
<path d="M100.906 48.1658C100.778 48.4764 100.602 48.7458 100.382 48.9754C100.162 49.205 99.9029 49.3868 99.6069 49.5209C99.3109 49.6549 98.9949 49.7213 98.6604 49.7213C98.3259 49.7213 98.01 49.6549 97.714 49.5209C97.418 49.3868 97.1592 49.205 96.9388 48.9754C96.7185 48.7458 96.5433 48.4764 96.4145 48.1658C96.2844 47.8552 96.2207 47.5274 96.2207 47.1797C96.2207 46.8585 96.2858 46.5572 96.4145 46.2732C96.5433 45.9905 96.7185 45.7423 96.9388 45.5313C97.1592 45.319 97.418 45.1517 97.714 45.027C98.01 44.9022 98.3259 44.8398 98.6604 44.8398C98.9949 44.8398 99.3109 44.9022 99.6069 45.027C99.9029 45.1517 100.162 45.3203 100.382 45.5313C100.602 45.7437 100.778 45.9905 100.906 46.2732C101.036 46.5559 101.1 46.8585 101.1 47.1797C101.1 47.5274 101.035 47.8566 100.906 48.1658ZM100.29 46.5453C100.196 46.3409 100.07 46.1604 99.9095 46.0065C99.7489 45.8525 99.5631 45.7317 99.3507 45.6415C99.1383 45.5526 98.9153 45.5074 98.6777 45.5074C98.4401 45.5074 98.2012 45.5526 97.9821 45.6415C97.7645 45.7304 97.5733 45.8512 97.4101 46.0025C97.2468 46.1538 97.1194 46.3316 97.0251 46.5347C96.9309 46.7377 96.8844 46.9527 96.8844 47.1797C96.8844 47.4385 96.9322 47.6814 97.0278 47.9083C97.1233 48.1353 97.2534 48.3344 97.4154 48.5029C97.5786 48.6728 97.7684 48.8055 97.9875 48.9037C98.2065 49.0019 98.4401 49.0511 98.6896 49.0511C98.9259 49.0511 99.1489 49.0019 99.3586 48.9037C99.5684 48.8055 99.7516 48.6715 99.9108 48.5029C100.069 48.333 100.195 48.1379 100.289 47.915C100.383 47.692 100.43 47.4531 100.43 47.1996C100.43 46.9674 100.383 46.7497 100.289 46.544L100.29 46.5453Z" fill="#513392"/>
<path d="M106.798 49.6205L103.888 45.9893V49.6205H103.239V44.9395H103.908L106.81 48.5574V44.9395H107.466V49.6205H106.797H106.798Z" fill="#513392"/>
<path d="M13.4411 21.0095C15.7282 21.0095 17.637 21.7779 19.1157 23.2962L23.7098 19.2642C22.5112 17.9543 21.0324 16.8912 19.3108 16.1028C17.5188 15.2826 15.5437 14.8672 13.4398 14.8672C10.9881 14.8672 8.71297 15.4299 6.67941 16.5381C4.64586 17.6477 3.0052 19.158 1.80525 21.0281C0.606616 22.8941 0 24.9844 0 27.2433C0 29.5022 0.607944 31.5873 1.80525 33.4401C3.0052 35.2981 4.64585 36.8032 6.68073 37.9127C8.71429 39.0223 10.9881 39.5837 13.4411 39.5837C15.5477 39.5837 17.5228 39.1736 19.3135 38.3653C21.0338 37.5889 22.5125 36.5192 23.7124 35.188L19.1183 31.1559C17.6396 32.6955 15.7309 33.4759 13.4424 33.4759C11.4394 33.4759 9.70187 32.8627 8.27626 31.655C6.84002 30.4379 6.11129 28.9541 6.11129 27.2433C6.11129 25.5326 6.84002 24.0182 8.27758 22.8131C9.7032 21.6173 11.4407 21.0108 13.4424 21.0108L13.4411 21.0095Z" fill="#513392"/>
<path d="M33.8863 8.74023H27.7764V39.5844H33.8863V8.74023Z" fill="#513392"/>
<path d="M48.6039 14.9004H48.5986H48.5932C45.5748 15.1313 43.0355 16.3855 41.0444 18.6311C39.048 20.8807 37.9781 23.7196 37.8613 27.0695V27.38C37.9768 30.8454 39.125 33.7785 41.2714 36.0984C42.3426 37.2558 43.5452 38.1357 44.8447 38.7144C46.1429 39.2917 47.5778 39.585 49.1083 39.585C49.4547 39.585 49.7932 39.5731 50.1131 39.5505C51.8281 39.3315 53.3798 38.794 54.7258 37.9552C56.0731 37.1151 57.2531 35.9458 58.2341 34.4806L58.6336 33.8833V39.585H64.7436V14.8672H49.1096C48.957 14.8672 48.787 14.8791 48.6052 14.9004H48.6039ZM50.7609 21.0108H58.6323V27.2433C58.6323 27.4398 58.619 27.6282 58.5951 27.8048C58.3761 29.4346 57.5743 30.8042 56.2138 31.8726C54.8598 32.937 53.2072 33.4759 51.3024 33.4759C49.2994 33.4759 47.5619 32.8627 46.1363 31.655C44.7 30.4379 43.9713 28.9541 43.9713 27.2433C43.9713 25.5326 44.627 24.1828 45.9186 23.0122C47.1982 21.8523 48.8255 21.1794 50.7529 21.0108H50.7622H50.7609Z" fill="#513392"/>
<path d="M74.8268 21.2278V21.0102H75.0445H86.8569V14.8652H68.7168V34.9737H74.8268V21.2278Z" fill="#513392"/>
<path d="M93.8994 0C92.738 0 91.7424 0.407449 90.9407 1.20908C90.1376 2.01204 89.7314 2.9955 89.7314 4.13291C89.7314 5.27032 90.139 6.26041 90.942 7.07531C91.7438 7.88889 92.7393 8.30165 93.9008 8.30165C95.0622 8.30165 96.0219 7.88889 96.8237 7.07531C97.6267 6.26041 98.0343 5.27032 98.0343 4.13291C98.0343 2.9955 97.6267 2.01204 96.825 1.20908C96.0219 0.406122 95.0383 0 93.9008 0H93.8994Z" fill="#513392"/>
<path d="M96.9381 14.8652H90.8281V39.583H96.9381V14.8652Z" fill="#513392"/>
<path d="M115.807 32.9801L121.104 39.5829H129L119.765 28.1172L115.807 32.9801Z" fill="#513392"/>
<path d="M128.999 14.8652H121.104L115.225 22.1436L115.055 22.3546L114.885 22.1436L109.006 14.8652H101.146L107.826 23.1523L115.055 32.0976V32.0963L115.057 32.0976L119.83 26.2301L120.604 25.2798L128.999 14.8652Z" fill="#513392"/>
<path d="M109.005 39.5838L114.299 32.9837L110.363 28.1367L101.146 39.5838H109.005Z" fill="#513392"/>
</svg>
